<svg width="21" height="42" viewBox="0 0 21 42" fill="none" xmlns="http://www.w3.org/2000/svg">
<path fill-rule="evenodd" clip-rule="evenodd" d="M8.79904 0.948011C-1.41548 2.58023 0.784337 12.1522 0.784337 22.9892C0.784337 30.436 -1.23889 43.3856 12.1845 41.859C22.341 40.7021 20.0655 28.5674 20.0655 19.7197C20.0655 15.5122 20.5827 9.03364 19.0287 5.59567C17.5378 2.29603 13.5468 0.18849 8.79904 0.948011V0.948011ZM7.13152 11.9233V30.2826C7.13152 33.2327 7.15422 36.1148 10.1664 36.2356C14.1573 36.3965 13.7562 32.4128 13.7562 29.0251L13.7587 11.1688C13.7587 8.4552 13.0372 6.43819 10.1563 6.58909C7.27027 6.73747 7.13152 9.22981 7.13152 11.9233V11.9233Z" fill="white"/>
</svg>
