<svg width="21" height="42" viewBox="0 0 21 42" fill="none" xmlns="http://www.w3.org/2000/svg">
<path fill-rule="evenodd" clip-rule="evenodd" d="M20.3029 26.2365L14.2508 26.2038C14.1979 28.1604 14.4602 31.9957 14.049 33.633C13.5419 35.6424 11.2362 36.8345 9.10195 35.6525C7.25027 34.6289 7.51515 31.9052 7.51515 29.5286C7.51768 25.228 7.00808 8.8731 8.18368 7.14531C9.32899 5.46531 12.3992 5.42759 13.5218 7.10256C14.5737 8.6719 14.2483 12.1501 14.2231 14.2576L20.3079 14.3079C20.2726 10.0149 20.318 5.59609 18.0274 2.8598C15.0959 -0.641038 2.89099 -2.75613 1.24365 7.95513C0.713881 11.4006 1.09481 17.9647 1.09481 21.7321C1.09481 30.4314 -0.519732 40.2826 8.50659 41.7513C13.0979 42.4983 16.9325 40.9692 18.5571 38.3662C20.7418 34.8678 20.3306 30.7559 20.3029 26.2365Z" fill="white"/>
</svg>
